<svg width="24" height="20" viewBox="0 0 24 20" fill="none" xmlns="http://www.w3.org/2000/svg">
<path d="M12.2978 11.7621L22.1581 1.68802L23.4981 2.99953L12.3453 14.3942L6.43219 8.77303L7.72406 7.41408L12.2978 11.7621ZM23.866 5.30419L22.1133 7.09486C21.9813 8.86163 20.6391 10.9812 18.2097 13.2487C15.6428 15.6445 12.828 17.327 12.2898 17.64C12.214 17.6841 12.1083 17.7453 11.9999 17.808C11.8913 17.7452 11.7856 17.684 11.7098 17.64C11.1716 17.327 8.35697 15.6446 5.79009 13.2487C3.22884 10.858 1.875 8.63142 1.875 6.80972C1.875 3.90422 3.76402 1.875 6.46875 1.875C7.17211 1.875 7.78734 1.98084 8.32017 2.14852C10.276 3.04983 12.031 5.8717 12.031 5.8717C12.031 5.8717 13.7165 3.11302 15.5836 2.17964C16.1828 1.9777 16.8332 1.875 17.5313 1.875C18.0939 1.875 18.6211 1.96308 19.1035 2.12836L20.511 0.690375C19.6148 0.239203 18.5999 0 17.5312 0C15.2043 0 13.6268 0.908156 12.7133 1.66997C12.4718 1.8713 12.2295 2.10544 12.0077 2.35355C11.7811 2.09784 11.5322 1.85737 11.2843 1.65206C10.374 0.898406 8.7998 0 6.46875 0C4.69552 0 3.06961 0.657609 1.89052 1.85166C0.653719 3.10416 0 4.81861 0 6.80972C0 9.19805 1.51762 11.8256 4.51073 14.6194C7.22447 17.1524 10.1986 18.9302 10.7673 19.2608C11.0043 19.3986 11.5317 19.7027 11.5317 19.7027L12.0002 19.9729L12.4686 19.7026C12.4686 19.7026 12.9956 19.3985 13.2323 19.2608C13.801 18.9301 16.7753 17.1523 19.4891 14.6193C22.4823 11.8256 24 9.19805 24 6.80972C24 6.28767 23.9546 5.78484 23.866 5.30419Z" fill="white"/>
</svg>
